<?xml version="1.0" encoding="UTF-8" standalone="no"?>
<!DOCTYPE svg PUBLIC "-//W3C//DTD SVG 20010904//EN"
              "http://www.w3.org/TR/2001/REC-SVG-20010904/DTD/svg10.dtd">

<svg xmlns="http://www.w3.org/2000/svg"
     width="7.5in" height="1.69444in"
     viewBox="0 0 540 122">
  <path id="Selection"
        fill="none" stroke="black" stroke-width="1"
        d="M 50.00,1.00
           C 50.00,1.00 48.00,9.00 48.00,9.00
             48.00,9.00 45.00,9.00 45.00,9.00
             45.00,9.00 43.00,21.00 43.00,21.00
             43.00,21.00 40.00,21.00 40.00,21.00
             40.00,21.00 38.00,34.00 38.00,34.00
             38.00,34.00 35.00,34.00 35.00,34.00
             35.00,34.00 33.00,46.00 33.00,46.00
             33.00,46.00 30.00,46.00 30.00,46.00
             30.00,46.00 28.00,56.00 28.00,56.00
             28.00,56.00 25.00,56.00 25.00,56.00
             25.00,56.00 23.00,69.00 23.00,69.00
             23.00,69.00 20.00,69.00 20.00,69.00
             20.00,69.00 18.00,81.00 18.00,81.00
             18.00,81.00 15.00,81.00 15.00,81.00
             15.00,81.00 13.00,94.00 13.00,94.00
             13.00,94.00 10.00,94.00 10.00,94.00
             10.00,94.00 8.00,104.00 8.00,104.00
             8.00,104.00 5.00,104.00 5.00,104.00
             5.00,104.00 3.00,116.00 3.00,116.00
             3.00,116.00 0.00,116.00 0.00,116.00
             0.00,116.00 0.00,121.00 0.00,121.00
             0.00,121.00 15.00,121.00 15.00,121.00
             15.00,121.00 15.00,116.00 15.00,116.00
             15.00,116.00 18.00,116.00 18.00,116.00
             18.00,116.00 20.00,106.00 20.00,106.00
             20.00,106.00 23.00,106.00 23.00,106.00
             23.00,106.00 25.00,94.00 25.00,94.00
             25.00,94.00 28.00,94.00 28.00,94.00
             28.00,94.00 28.00,89.00 28.00,89.00
             28.00,89.00 59.00,89.00 59.00,89.00
             62.35,89.00 69.82,88.43 72.43,90.31
             75.24,92.34 74.96,95.94 75.00,99.00
             75.00,99.00 78.00,99.00 78.00,99.00
             78.00,99.00 80.00,111.00 80.00,111.00
             80.00,111.00 83.00,111.00 83.00,111.00
             83.00,111.00 85.00,121.00 85.00,121.00
             85.00,121.00 100.00,121.00 100.00,121.00
             100.00,121.00 98.00,109.00 98.00,109.00
             98.00,109.00 95.00,109.00 95.00,109.00
             95.00,109.00 93.00,96.00 93.00,96.00
             93.00,96.00 90.00,96.00 90.00,96.00
             90.00,96.00 88.00,86.00 88.00,86.00
             88.00,86.00 85.00,86.00 85.00,86.00
             85.00,86.00 83.00,74.00 83.00,74.00
             83.00,74.00 80.00,74.00 80.00,74.00
             80.00,74.00 78.00,61.00 78.00,61.00
             78.00,61.00 75.00,61.00 75.00,61.00
             75.00,61.00 73.00,49.00 73.00,49.00
             73.00,49.00 70.00,49.00 70.00,49.00
             70.00,49.00 68.00,36.00 68.00,36.00
             68.00,36.00 65.00,36.00 65.00,36.00
             65.00,36.00 63.00,24.00 63.00,24.00
             63.00,24.00 60.00,24.00 60.00,24.00
             60.00,24.00 58.00,11.00 58.00,11.00
             58.00,11.00 55.00,11.00 55.00,11.00
             55.00,11.00 53.00,1.00 53.00,1.00
             53.00,1.00 50.00,1.00 50.00,1.00 Z
           M 273.00,6.00
           C 273.00,6.00 273.00,121.00 273.00,121.00
             273.00,121.00 318.00,121.00 318.00,121.00
             318.00,121.00 318.00,109.00 318.00,109.00
             318.00,109.00 288.00,109.00 288.00,109.00
             288.00,109.00 288.00,6.00 288.00,6.00
             288.00,6.00 273.00,6.00 273.00,6.00 Z
           M 365.00,6.00
           C 365.00,6.00 365.00,121.00 365.00,121.00
             365.00,121.00 425.00,121.00 425.00,121.00
             425.00,121.00 425.00,109.00 425.00,109.00
             425.00,109.00 380.00,109.00 380.00,109.00
             380.00,109.00 380.00,66.00 380.00,66.00
             380.00,66.00 423.00,66.00 423.00,66.00
             423.00,66.00 423.00,51.00 423.00,51.00
             423.00,51.00 380.00,51.00 380.00,51.00
             380.00,51.00 380.00,19.00 380.00,19.00
             380.00,19.00 425.00,19.00 425.00,19.00
             425.00,19.00 425.00,6.00 425.00,6.00
             425.00,6.00 365.00,6.00 365.00,6.00 Z
           M 475.00,6.00
           C 475.00,6.00 475.00,121.00 475.00,121.00
             475.00,121.00 490.00,121.00 490.00,121.00
             490.00,121.00 490.00,71.00 490.00,71.00
             490.00,71.00 493.00,71.00 493.00,71.00
             493.29,75.41 493.55,77.45 498.00,79.00
             498.31,83.47 498.49,84.71 503.00,86.00
             503.29,90.41 503.55,92.45 508.00,94.00
             508.00,94.00 510.00,104.00 510.00,104.00
             513.95,105.86 514.37,106.72 515.00,111.00
             518.85,113.14 519.40,114.74 520.00,119.00
             527.79,121.91 531.83,121.00 540.00,121.00
             540.00,121.00 538.00,114.00 538.00,114.00
             534.15,111.86 533.60,110.26 533.00,106.00
             529.05,104.14 528.63,103.28 528.00,99.00
             524.15,96.86 523.60,95.26 523.00,91.00
             519.05,89.14 518.63,88.28 518.00,84.00
             518.00,84.00 510.00,79.00 510.00,79.00
             509.57,72.02 506.63,69.14 518.00,69.00
             521.76,60.89 529.36,60.83 530.00,51.00
             530.00,51.00 533.00,51.00 533.00,51.00
             533.00,51.00 533.00,26.00 533.00,26.00
             533.00,26.00 530.00,26.00 530.00,26.00
             530.00,26.00 528.00,16.00 528.00,16.00
             523.74,15.40 522.14,14.85 520.00,11.00
             520.00,11.00 508.00,9.00 508.00,9.00
             508.00,9.00 508.00,6.00 508.00,6.00
             508.00,6.00 475.00,6.00 475.00,6.00 Z
           M 140.00,9.00
           C 140.00,9.00 140.00,26.00 140.00,26.00
             140.00,26.00 215.00,26.00 215.00,26.00
             215.00,26.00 215.00,9.00 215.00,9.00
             215.00,9.00 140.00,9.00 140.00,9.00 Z
           M 510.00,21.00
           C 510.00,21.00 518.00,29.00 518.00,29.00
             518.00,33.18 517.42,35.49 520.00,39.00
             520.00,39.00 520.00,41.00 520.00,41.00
             520.00,41.00 518.00,49.00 518.00,49.00
             518.00,49.00 515.00,49.00 515.00,49.00
             515.00,49.00 515.00,54.00 515.00,54.00
             515.00,54.00 505.00,56.00 505.00,56.00
             505.00,56.00 505.00,59.00 505.00,59.00
             505.00,59.00 490.00,59.00 490.00,59.00
             490.00,59.00 490.00,19.00 490.00,19.00
             500.76,21.53 498.87,21.00 510.00,21.00 Z
           M 53.00,36.00
           C 53.00,36.00 55.00,49.00 55.00,49.00
             55.00,49.00 58.00,49.00 58.00,49.00
             58.00,49.00 60.00,61.00 60.00,61.00
             60.00,61.00 63.00,61.00 63.00,61.00
             63.00,61.00 68.00,76.00 68.00,76.00
             68.00,76.00 35.00,76.00 35.00,76.00
             35.00,76.00 35.00,69.00 35.00,69.00
             35.00,69.00 38.00,69.00 38.00,69.00
             38.00,69.00 40.00,56.00 40.00,56.00
             40.00,56.00 43.00,56.00 43.00,56.00
             43.00,56.00 45.00,44.00 45.00,44.00
             45.00,44.00 48.00,44.00 48.00,44.00
             48.00,44.00 50.00,36.00 50.00,36.00
             50.00,36.00 53.00,36.00 53.00,36.00 Z
           M 140.00,56.00
           C 140.00,56.00 140.00,74.00 140.00,74.00
             140.00,74.00 215.00,74.00 215.00,74.00
             215.00,74.00 215.00,56.00 215.00,56.00
             215.00,56.00 140.00,56.00 140.00,56.00 Z
           M 140.00,104.00
           C 140.00,104.00 140.00,121.00 140.00,121.00
             140.00,121.00 215.00,121.00 215.00,121.00
             215.00,121.00 215.00,112.00 215.00,112.00
             214.85,102.43 211.50,104.00 197.00,104.00
             197.00,104.00 140.00,104.00 140.00,104.00 Z" />
</svg>
