<svg xmlns="http://www.w3.org/2000/svg" width="20" height="20" viewBox="0 0 20 20">
    <path fill="#c4c9d4" fill-rule="evenodd" d="M11.286 15.286c.803 0 1.493-.494 1.782-1.194.719.78 1.652 1.194 2.878 1.194.267 0 .483-.216.483-.482v-.322c0-.266-.216-.482-.483-.482-1.221 0-2.04-.623-2.398-1.514l1.407-1.406c.34-.34.2-.92-.258-1.067l-.84-.27V6.93c0-.355-.288-.643-.643-.643H11.93v-.804c0-.266-.216-.482-.483-.482H8.554c-.267 0-.483.216-.483.482v.804H6.786c-.355 0-.643.288-.643.643v2.814l-.84.27c-.457.147-.597.727-.258 1.067l1.407 1.406C6.099 13.363 5.29 14 4.054 14c-.267 0-.483.216-.483.482v.322c0 .266.216.482.483.482 1.225 0 2.16-.414 2.878-1.194.29.7.98 1.194 1.782 1.194h2.572zM12.57 9.33l-2.374-.763c-.053-.017-.141-.031-.197-.031-.056 0-.144.014-.197.03L7.43 9.33V7.57h5.142V9.33z"/>
</svg>
