<?xml version="1.0" encoding="UTF-8"?>
<svg width="28px" height="28px" viewBox="0 0 28 28" version="1.1" xmlns="http://www.w3.org/2000/svg" xmlns:xlink="http://www.w3.org/1999/xlink">
    <title>Icons/28/Location_Unknowed</title>
    <g id="Symbols" stroke="none" stroke-width="1" fill="none" fill-rule="evenodd">
        <g id="Icons/28/Location_Unknowed" fill="#c4c9d4">
            <path d="M22.25,9 C22.6642136,9 23,9.33578644 23,9.75 C23,10.1642136 22.6642136,10.5 22.25,10.5 L21.999,10.5 L21.999,18.499 L22.25,18.5 C22.6642136,18.5 23,18.8357864 23,19.25 C23,19.6642136 22.6642136,20 22.25,20 L5.75,20 C5.33578644,20 5,19.6642136 5,19.25 C5,18.8357864 5.33578644,18.5 5.75,18.5 L6,18.499 L6,10.5 L5.75,10.5 C5.33578644,10.5 5,10.1642136 5,9.75 C5,9.33578644 5.33578644,9 5.75,9 L22.25,9 Z M20.499,10.5 L7.5,10.5 L7.5,18.499 L20.499,18.499 L20.499,10.5 Z M10.7738095,11.6666667 C11.1288497,11.6666667 11.4166667,11.9544836 11.4166667,12.3095238 L11.4166667,16.8571429 C11.4166667,17.2121831 11.1288497,17.5 10.7738095,17.5 L10.5595238,17.5 C10.2044836,17.5 9.91666667,17.2121831 9.91666667,16.8571429 L9.91666667,12.3095238 C9.91666667,11.9544836 10.2044836,11.6666667 10.5595238,11.6666667 L10.7738095,11.6666667 Z M14.2738095,11.6666667 C14.6288497,11.6666667 14.9166667,11.9544836 14.9166667,12.3095238 L14.9166667,16.8571429 C14.9166667,17.2121831 14.6288497,17.5 14.2738095,17.5 L14.0595238,17.5 C13.7044836,17.5 13.4166667,17.2121831 13.4166667,16.8571429 L13.4166667,12.3095238 C13.4166667,11.9544836 13.7044836,11.6666667 14.0595238,11.6666667 L14.2738095,11.6666667 Z M17.7738095,11.6666667 C18.1288497,11.6666667 18.4166667,11.9544836 18.4166667,12.3095238 L18.4166667,16.8571429 C18.4166667,17.2121831 18.1288497,17.5 17.7738095,17.5 L17.5595238,17.5 C17.2044836,17.5 16.9166667,17.2121831 16.9166667,16.8571429 L16.9166667,12.3095238 C16.9166667,11.9544836 17.2044836,11.6666667 17.5595238,11.6666667 L17.7738095,11.6666667 Z" id="Combined-Shape"></path>
        </g>
    </g>
</svg>