<svg xmlns="http://www.w3.org/2000/svg" width="28" height="28" viewBox="0 0 28 28">
    <path fill="#c4c9d4" d="M14.482 18.3l5.347-5.351c.443-.443.13-1.199-.496-1.199H16.25V5.844c0-.468-.376-.844-.844-.844h-2.812c-.468 0-.844.376-.844.844v5.906H8.663c-.625 0-.938.756-.495 1.199l5.354 5.35c.264.264.696.264.96 0zm7.674 4.7c.468 0 .844-.376.844-.844V18.22c0-.468-.376-.844-.844-.844H17l-1.723 1.723c-.706.706-1.846.706-2.552 0L11 17.375H5.844c-.468 0-.844.376-.844.844v3.937c0 .468.376.844.844.844h16.312zm-4.218-.984c-.387 0-.704-.317-.704-.703 0-.387.317-.704.703-.704.387 0 .704.317.704.703 0 .387-.317.704-.703.704zm2.25 0c-.387 0-.704-.317-.704-.703 0-.387.317-.704.703-.704.387 0 .704.317.704.703 0 .387-.317.704-.703.704z"/>
</svg>
