<svg xmlns="http://www.w3.org/2000/svg" width="20" height="20" viewBox="0 0 20 20">
    <path fill="#FFF" fill-rule="evenodd" d="M10.357 11.071c2.662 0 4.822-2.16 4.822-4.821 0-2.662-2.16-4.821-4.822-4.821S5.536 3.589 5.536 6.25c0 2.662 2.16 4.821 4.821 4.821zm0-1.607c-1.771 0-3.214-1.443-3.214-3.214s1.443-3.214 3.214-3.214 3.214 1.443 3.214 3.214-1.443 3.214-3.214 3.214zm5.893 9.107c.887 0 1.607-.72 1.607-1.607v-.857c0-2.484-2.015-4.5-4.5-4.5-.96 0-1.423.536-3 .536s-2.036-.536-3-.536c-2.484 0-4.5 2.016-4.5 4.5v.857c0 .888.72 1.607 1.607 1.607H16.25zm0-1.607H4.464v-.857c0-1.594 1.3-2.893 2.893-2.893.489 0 1.283.536 3 .536 1.731 0 2.508-.536 3-.536 1.594 0 2.893 1.3 2.893 2.893v.857z"/>
</svg>
