<svg xmlns="http://www.w3.org/2000/svg" width="24" height="24" viewBox="0 0 24 24">
    <g fill="none" fill-rule="evenodd">
        <g fill="#003068">
            <g>
                <path d="M16.245 18.343c.64 0 1.157-.518 1.157-1.157 0-.135-.029-.265-.07-.386h1.997c.212 0 .385-.174.385-.386v-.771c0-.212-.173-.386-.385-.386H7.37V6.386c0-.212-.173-.386-.385-.386H4.67c-.212 0-.385.174-.385.386v.771c0 .212.173.386.385.386H5.83v8.871c0 .212.173.386.385.386h1.999c-.044.12-.07.25-.07.386 0 .639.518 1.157 1.157 1.157s1.157-.518 1.157-1.157c0-.135-.029-.265-.07-.386h4.771c-.043.12-.07.25-.07.386 0 .639.518 1.157 1.157 1.157zm2.312-4.629c.212 0 .386-.173.386-.385V7.157c0-.212-.174-.386-.386-.386h-3.471v3.086l-1.157-.771-1.158.771V6.771H9.3c-.212 0-.386.174-.386.386v6.172c0 .212.174.385.386.385h9.257z" transform="translate(-55 -1539) translate(55 1539)"/>
            </g>
        </g>
    </g>
</svg>
