<?xml version="1.0" encoding="UTF-8"?>
<svg width="28px" height="28px" viewBox="0 0 28 28" version="1.1" xmlns="http://www.w3.org/2000/svg" xmlns:xlink="http://www.w3.org/1999/xlink">
    <title>Icons/28/Sensors_Pressure</title>
    <g id="Symbols" stroke="none" stroke-width="1" fill="none" fill-rule="evenodd">
        <g id="Icons/28/Sensors_Pressure" fill="#2B303A">
            <path d="M20.921837,20.9999666 C21.2699502,20.9999666 21.6040254,20.8255896 21.7793484,20.5249617 C22.5546456,19.1955886 22.9999571,17.6499685 22.9999571,15.9999785 C22.9999571,11.0293788 18.9705783,7 13.9999785,7 C9.02937882,7 5,11.0293788 5,15.9999785 C5,17.6499685 5.44531144,19.1955886 6.22060866,20.5249617 C6.39593173,20.8255896 6.73000686,20.9999666 7.07812005,20.9999666 L20.921837,20.9999666 Z M14.0002861,10.9999952 C13.4481,10.9999952 13.0002861,10.5521766 13.0002861,9.99999523 C13.0002861,9.44780911 13.4477948,8.99999523 13.9999785,8.99999523 C14.4596637,8.99999523 14.830604,9.31655331 14.947486,9.73906818 L14.8711539,9.87526215 C14.8590361,9.89829496 14.8481007,9.92208166 14.8396677,9.94750274 L14.5515519,10.8121857 C14.391213,10.9212553 14.2087183,10.9999952 14.0002861,10.9999952 Z M15.7224781,18.9999714 L12.277479,18.9999714 C12.1056044,18.7046535 11.9999833,18.3662144 11.9999833,17.9999738 C11.9999833,16.9393379 12.8281063,16.0803006 13.8718661,16.0127959 L15.7887316,10.2625044 C15.9190413,9.86998827 16.3427769,9.65468727 16.7374598,9.7884455 C17.1302811,9.9193656 17.3421642,10.3443524 17.2115187,10.7371737 L15.2949889,16.48716 C15.7227833,16.8540414 15.9999833,17.3918514 15.9999833,17.9999738 C15.9999833,18.3662144 15.8943527,18.7046535 15.7224781,18.9999714 Z M9.49999166,12.9999905 C8.94780553,12.9999905 8.49999166,12.5521718 8.49999166,11.9999905 C8.49999166,11.4478043 8.94780553,10.9999905 9.49999166,10.9999905 C10.052173,10.9999905 10.4999917,11.4478043 10.4999917,11.9999905 C10.4999917,12.5521718 10.052173,12.9999905 9.49999166,12.9999905 Z M18.4999678,13.0002956 C18.1443473,12.9999857 17.8471679,12.8040633 17.6696475,12.5246755 L18.1546622,11.0699976 C18.2630909,11.029684 18.3774705,11.0002956 18.4999678,11.0002956 C19.0521516,11.0002956 19.4999654,11.4481095 19.4999654,12.0002956 C19.4999654,12.552477 19.0521516,13.0002956 18.4999678,13.0002956 Z M7.99999523,17.9999785 C7.44780911,17.9999785 6.99999523,17.5521599 6.99999523,16.9999785 C6.99999523,16.4477924 7.44780911,15.9999785 7.99999523,15.9999785 C8.55217659,15.9999785 8.99999523,16.4477924 8.99999523,16.9999785 C8.99999523,17.5521599 8.55217659,17.9999785 7.99999523,17.9999785 Z M19.9999666,17.9999785 C19.4477805,17.9999785 18.9999666,17.5521599 18.9999666,16.9999785 C18.9999666,16.4477924 19.4477805,15.9999785 19.9999666,15.9999785 C20.552148,15.9999785 20.9999666,16.4477924 20.9999666,16.9999785 C20.9999666,17.5521599 20.552148,17.9999785 19.9999666,17.9999785 Z" id="Pressure"></path>
        </g>
    </g>
</svg>