<svg xmlns="http://www.w3.org/2000/svg" width="24" height="26" viewBox="0 0 24 26">
    <path fill="#E7E247" fill-rule="evenodd" d="M12 20.354c2.855 0 5.935-1.59 6.52-4.435h.871c.287 0 .431-.358.228-.567l-1.801-1.858c-.126-.13-.33-.13-.456 0l-1.802 1.858c-.203.21-.059.567.228.567h.945c-.545 1.506-2.283 2.4-3.873 2.606V13.26h1.397c.178 0 .323-.15.323-.333v-1.109c0-.183-.145-.332-.323-.332H12.86v-.152c1.002-.365 1.72-1.35 1.72-2.509 0-1.448-1.14-2.64-2.543-2.66-1.442-.021-2.617 1.178-2.617 2.66 0 1.159.718 2.144 1.72 2.51v.15H9.743c-.179 0-.323.15-.323.333v1.11c0 .183.144.332.323.332h1.397v5.266c-1.584-.205-3.328-1.1-3.873-2.606h.945c.287 0 .43-.358.228-.567l-1.802-1.858c-.126-.13-.33-.13-.456 0l-1.801 1.858c-.203.21-.06.567.228.567h.87c.586 2.848 3.67 4.435 6.521 4.435zm0-10.643c-.474 0-.86-.398-.86-.887s.386-.887.86-.887.86.398.86.887c0 .49-.386.887-.86.887z"/>
</svg>
