<svg xmlns="http://www.w3.org/2000/svg" width="24" height="24" viewBox="0 0 24 24">
    <path fill="#E7E247" fill-rule="evenodd" d="M6.407 18.342c.106 0 .193-.087.193-.193v-5.978c0-.424.352-.772.786-.772h9.228c.434 0 .786.348.786.772v5.978c0 .106.087.193.193.193h1.928c.107 0 .193-.087.193-.193V9.888c0-.468-.282-.887-.71-1.068l-6.56-2.731c-.118-.05-.318-.089-.445-.089-.128 0-.327.04-.445.089l-6.557 2.73c-.43.182-.711.601-.711 1.069v8.261c0 .106.086.193.193.193h1.928zm10.029-4.628c.106 0 .193-.087.193-.193v-1.157c0-.106-.087-.193-.193-.193H7.579c-.106 0-.193.087-.193.193l-.003 1.157c0 .106.087.193.193.193h8.86zm0 2.314c.106 0 .193-.087.193-.193v-1.157c0-.106-.087-.193-.193-.193H7.574c-.106 0-.193.087-.193.193l-.002 1.157c0 .106.086.193.193.193h8.864zm0 2.314c.106 0 .193-.087.193-.193v-1.157c0-.106-.087-.193-.193-.193h-8.87c-.105 0-.192.087-.192.193L7.37 18.15c0 .106.087.193.193.193h8.872z"/>
</svg>