<svg xmlns="http://www.w3.org/2000/svg" width="20" height="20" viewBox="0 0 20 20">
    <path fill="#FFF" fill-rule="evenodd" d="M9 16.2c1.988 0 3.6-1.612 3.6-3.6 0-.913-.34-1.746-.9-2.38V4.5c0-1.491-1.209-2.7-2.7-2.7S6.3 3.009 6.3 4.5v5.72c-.556.63-.895 1.456-.9 2.361-.01 1.978 1.597 3.605 3.574 3.619H9zm0-1.35h-.016c-1.234-.009-2.24-1.028-2.234-2.262.005-.956.542-1.453.9-1.858V4.5c0-.744.606-1.35 1.35-1.35.744 0 1.35.606 1.35 1.35v6.23c.355.402.9.904.9 1.87 0 1.24-1.01 2.25-2.25 2.25zm0-.45c.994 0 1.8-.806 1.8-1.8 0-.666-.362-1.247-.9-1.559V8.1c0-.497-.403-.9-.9-.9s-.9.403-.9.9v2.941c-.538.312-.9.893-.9 1.559 0 .994.806 1.8 1.8 1.8z"/>
</svg>
