<svg xmlns="http://www.w3.org/2000/svg" width="20" height="20" viewBox="0 0 20 20">
    <path fill="#FFF" fill-rule="evenodd" d="M9.54 13.44V5.36c0-.364-.33-.631-.67-.543l-3.24.84c-.241.062-.41.285-.41.542v6.161H3.87c-.15 0-.27.12-.27.27v.54c0 .15.12.27.27.27h5.67zm4.59 0c.15 0 .27-.12.27-.27v-.54c0-.15-.12-.27-.27-.27h-1.35V6.714c0-.46-.363-.834-.81-.834h-1.89v1.08h1.62v6.48h2.43zM8.055 9.66c-.224 0-.405-.242-.405-.54 0-.298.181-.54.405-.54.224 0 .405.242.405.54 0 .298-.181.54-.405.54z"/>
</svg>
