<svg xmlns="http://www.w3.org/2000/svg" width="28" height="29" viewBox="0 0 28 29">
    <path fill="#FFF" fill-rule="evenodd" d="M14 23.773c4.972 0 9-4.153 9-9.278 0-5.126-4.028-9.279-9-9.279S5 9.37 5 14.495c0 5.125 4.028 9.278 9 9.278zm0-1.796c-4.01 0-7.258-3.348-7.258-7.482S9.99 7.012 14 7.012s7.258 3.349 7.258 7.483c0 4.134-3.248 7.482-7.258 7.482zm2.874-3.674l.82-.845c.17-.176.17-.46 0-.636l-2.257-2.327 2.257-2.327c.17-.176.17-.46 0-.636l-.82-.846c-.17-.176-.446-.176-.617 0L14 13.013l-2.257-2.327c-.17-.176-.447-.176-.617 0l-.82.846c-.17.176-.17.46 0 .636l2.257 2.327-2.257 2.327c-.17.176-.17.46 0 .636l.82.845c.17.176.446.176.617 0L14 15.976l2.257 2.327c.17.176.447.176.617 0z"/>
</svg>
