<svg xmlns="http://www.w3.org/2000/svg" width="20" height="20" viewBox="0 0 20 20">
    <path fill="#003068" fill-rule="evenodd" d="M13.214 15.286c1.065 0 1.929-.864 1.929-1.929h.964c.177 0 .322-.145.322-.321v-.643c0-.177-.145-.322-.322-.322h-.321V9.9c0-.255-.103-.5-.284-.681l-2.006-2.007c-.181-.181-.426-.283-.681-.283h-.886v-.965c0-.532-.432-.964-.965-.964H4.536c-.533 0-.965.432-.965.964v6.429c0 .532.432.964.965.964h.321c0 1.065.864 1.929 1.929 1.929 1.064 0 1.928-.864 1.928-1.929h2.572c0 1.065.864 1.929 1.928 1.929zm1.607-5.143H11.93v-2.25h.886L14.82 9.9v.243zM6.786 14.32c-.533 0-.965-.431-.965-.964 0-.532.432-.964.965-.964.532 0 .964.432.964.964 0 .533-.432.964-.964.964zm6.428 0c-.532 0-.964-.431-.964-.964 0-.532.432-.964.964-.964.533 0 .965.432.965.964 0 .533-.432.964-.965.964z"/>
</svg>
