<svg xmlns="http://www.w3.org/2000/svg" width="28" height="28" viewBox="0 0 28 28">
    <defs>
        <filter id="bv6exkyuza">
            <feColorMatrix in="SourceGraphic" values="0 0 0 0 0.168627 0 0 0 0 0.188235 0 0 0 0 0.227451 0 0 0 1.000000 0"/>
        </filter>
    </defs>
    <g fill="none" fill-rule="evenodd" filter="url(#bv6exkyuza)" transform="translate(-384 -4)">
        <path fill="#c4c9d4" d="M397.864 27c1.876 0 4.528-1.023 5.918-2.283.08-.07.143-.213.143-.319 0-.098-.056-.234-.125-.303l-1.214-1.214c-.07-.07-.205-.126-.303-.126-.088 0-.215.048-.282.106-.982.865-2.84 1.567-4.149 1.567-3.467 0-6.281-2.816-6.281-6.286 0-3.47 2.814-6.286 6.281-6.286 1.848 0 4.183 1.245 5.214 2.78l-3.624-.174h-.02c-.207 0-.38.146-.42.342l-.009.086v1.694c0 .236.192.428.429.428h7.15c.236 0 .428-.192.428-.428V9.429c0-.237-.192-.429-.428-.429h-1.693c-.236 0-.428.192-.428.429v.02l.143 2.956c-1.46-1.722-4.476-3.12-6.733-3.12h-.01c-4.877 0-8.855 3.984-8.851 8.865.004 4.888 3.965 8.85 8.851 8.85h.013z"/>
    </g>
</svg>
