<svg xmlns="http://www.w3.org/2000/svg" width="28" height="28" viewBox="0 0 28 28">
    <path fill="#2B303A" fill-rule="evenodd" d="M21.757 22.755l.995-.995c.33-.33.33-.865.003-1.195l-3.505-3.506c-.158-.158-.373-.246-.598-.246h-.573c.97-1.24 1.547-2.802 1.547-4.5 0-4.04-3.273-7.313-7.313-7.313C8.273 5 5 8.273 5 12.313c0 4.04 3.273 7.313 7.313 7.313 1.698 0 3.26-.577 4.5-1.547v.573c0 .225.088.44.246.598l3.506 3.505c.33.33.865.33 1.192 0zm-9.444-5.942c-2.486 0-4.5-2.01-4.5-4.5 0-2.486 2.01-4.5 4.5-4.5 2.486 0 4.5 2.01 4.5 4.5 0 2.486-2.01 4.5-4.5 4.5z"/>
</svg>
