<svg xmlns="http://www.w3.org/2000/svg" width="20" height="20" viewBox="0 0 20 20">
    <path fill="#FFF" fill-rule="evenodd" d="M12.157 15.505l4.787-5c.265-.28.265-.731 0-1.011l-4.787-5c-.43-.446-1.169-.13-1.169.507v2.856H7.113c-.38 0-.684.319-.684.714v2.857c0 .396.304.714.684.714h3.875V15c0 .64.741.952 1.169.506zm-3.943.21c.197 0 .357-.161.357-.358v-1.19c0-.197-.16-.357-.357-.357h-2.5c-.527 0-.952-.426-.952-.953V7.143c0-.527.425-.953.952-.953h2.5c.197 0 .357-.16.357-.357v-1.19c0-.197-.16-.357-.357-.357h-2.5c-1.577 0-2.857 1.28-2.857 2.857v5.714c0 1.578 1.28 2.857 2.857 2.857h2.5z"/>
</svg>
